<?xml version="1.0" standalone="no"?>
<!DOCTYPE svg PUBLIC "-//W3C//DTD SVG 20010904//EN"
 "http://www.w3.org/TR/2001/REC-SVG-20010904/DTD/svg10.dtd">
<svg version="1.0" xmlns="http://www.w3.org/2000/svg"
 width="1752.000000pt" height="1752.000000pt" viewBox="0 0 1752.000000 1752.000000"
 preserveAspectRatio="xMidYMid meet">
<metadata>
Created by potrace 1.11, written by Peter Selinger 2001-2013
</metadata>
<g transform="translate(0.000000,1752.000000) scale(0.100000,-0.100000)"
fill="#000000" stroke="none">
<path d="M2668 16553 c-60 -18 -119 -75 -138 -133 -11 -38 -14 -281 -15 -1530
l0 -1485 -130 -1 c-176 -1 -234 -14 -284 -66 -42 -42 -67 -116 -57 -168 2 -14
5 -33 5 -42 1 -15 83 -145 100 -158 4 -3 42 -52 84 -110 43 -58 85 -113 93
-123 8 -10 32 -42 52 -70 20 -29 39 -54 42 -57 6 -5 79 -102 209 -275 42 -55
80 -105 86 -111 5 -6 17 -21 25 -34 14 -21 148 -199 173 -230 29 -37 574 -767
582 -780 6 -9 10 -1054 10 -2643 0 -2129 -2 -2632 -13 -2645 -11 -15 -221
-294 -272 -362 -92 -123 -321 -427 -328 -435 -4 -5 -28 -37 -52 -70 -25 -33
-53 -69 -63 -79 -9 -11 -17 -23 -17 -27 0 -4 -6 -14 -14 -21 -7 -8 -52 -65
-99 -128 -48 -63 -90 -119 -95 -125 -4 -5 -28 -37 -52 -70 -25 -33 -51 -66
-57 -75 -61 -75 -383 -515 -388 -530 -12 -37 -13 -120 -2 -155 19 -65 81 -115
160 -132 18 -3 1027 -7 2244 -7 2208 -1 2211 -1 2200 -21 -21 -40 -142 -220
-149 -223 -5 -2 -8 -8 -8 -13 0 -5 -49 -84 -109 -177 -124 -190 -247 -379
-346 -532 -38 -58 -106 -162 -151 -232 -46 -70 -125 -191 -175 -269 -50 -78
-118 -183 -152 -233 -33 -50 -68 -116 -77 -146 -23 -77 -4 -153 51 -208 72
-73 -183 -68 3094 -66 2028 0 2958 4 2975 11 14 6 28 11 33 11 21 3 70 41 93
73 19 27 25 51 27 95 3 98 4 95 -159 344 -38 58 -71 110 -74 115 -3 6 -32 51
-64 100 -32 50 -84 128 -114 175 -54 84 -72 112 -211 323 -39 60 -71 110 -71
113 0 3 -5 10 -10 17 -6 7 -47 68 -91 137 -45 69 -106 162 -135 208 -30 45
-80 121 -111 170 -31 48 -76 116 -100 153 -24 36 -43 67 -43 70 0 2 996 4
2213 3 1706 0 2222 3 2255 12 23 7 42 10 42 8 0 -10 70 44 89 68 53 67 47 208
-11 270 -7 7 -141 184 -298 393 -156 209 -287 382 -290 385 -3 3 -133 176
-290 385 -157 209 -287 382 -290 385 -3 3 -30 39 -60 80 -30 41 -61 82 -69 91
-9 9 -23 26 -31 39 -8 12 -19 28 -25 34 -5 6 -22 29 -37 51 l-26 40 0 2628 0
2628 84 112 c46 62 92 123 103 137 17 22 65 86 113 152 9 13 24 32 33 43 9 11
102 135 208 276 106 141 204 271 219 290 15 19 79 104 143 189 64 85 135 179
158 209 22 30 46 62 53 70 7 9 61 81 121 161 59 80 111 150 115 155 106 135
123 172 113 250 -12 95 -72 163 -160 179 -22 5 -103 9 -180 10 l-140 1 -5
1500 c-5 1384 -6 1503 -22 1535 -33 69 -79 103 -158 118 -39 8 -1789 11 -5945
10 -4971 -1 -5897 -3 -5937 -15z m4350 -2885 l-3 -263 -1682 0 c-926 0 -1683
3 -1683 8 0 4 4 7 9 7 5 0 30 10 57 22 27 12 51 23 54 23 3 1 41 18 84 38 43
20 80 37 82 37 1 0 37 16 78 35 42 19 78 35 81 35 2 0 37 15 77 34 157 73 209
96 214 96 3 0 38 15 77 34 40 19 100 46 135 60 34 15 91 39 125 55 34 15 69
31 77 34 8 3 511 6 1118 6 l1102 1 -2 -262z m5808 88 c214 -95 414 -184 444
-198 30 -13 115 -51 188 -83 72 -33 132 -62 132 -65 0 -3 -758 -5 -1683 -5
l-1684 0 0 263 0 263 1107 -1 1107 -1 389 -173z m-2545 -1588 c30 -40 56 -75
59 -78 3 -3 79 -104 170 -225 91 -121 171 -226 177 -235 7 -8 87 -114 178
-235 l164 -220 1 -632 0 -633 -403 0 -404 0 0 1165 c0 641 1 1165 3 1165 1 0
26 -33 55 -72z m-3261 -1103 l0 -1155 -397 2 -398 3 0 628 0 628 103 137 c56
75 108 144 115 152 6 9 25 33 42 55 16 22 33 45 38 50 6 8 238 317 330 439 46
61 107 141 115 151 5 6 17 23 26 38 10 15 20 27 22 27 2 0 4 -520 4 -1155z m0
-5052 c0 -636 -4 -1153 -8 -1147 -5 5 -62 81 -128 169 -65 88 -121 162 -124
165 -3 3 -57 75 -120 160 -63 85 -117 157 -120 160 -3 3 -71 93 -151 200
l-145 195 2 620 c1 341 2 623 3 628 0 4 179 7 396 7 l395 0 0 -1157z m4010
526 l0 -631 -117 -157 c-65 -86 -121 -160 -126 -166 -8 -10 -333 -440 -365
-483 -28 -39 -70 -96 -87 -117 -8 -11 -32 -42 -52 -70 -21 -27 -43 -55 -48
-61 -7 -8 -11 351 -11 1152 l0 1164 403 0 403 0 0 -631z"/>
</g>
</svg>
